<svg xmlns="http://www.w3.org/2000/svg" width="480" height="480" viewBox="0 0 120 120">
  <defs><linearGradient id="g1" x1="0" y1="0" x2="1" y2="1"><stop offset="0" stop-color="#22D3EE"></stop><stop offset=".5" stop-color="#8B5CF6"></stop><stop offset="1" stop-color="#F43F9D"></stop></linearGradient></defs>
  <rect width="120" height="120" fill="#0B0C11"></rect>
  <g fill="url(#g1)">
    <rect x="37" y="4" width="6" height="16" rx="2"></rect><rect x="57" y="4" width="6" height="16" rx="2"></rect><rect x="77" y="4" width="6" height="16" rx="2"></rect>
    <rect x="37" y="100" width="6" height="16" rx="2"></rect><rect x="57" y="100" width="6" height="16" rx="2"></rect><rect x="77" y="100" width="6" height="16" rx="2"></rect>
    <rect x="4" y="37" width="16" height="6" rx="2"></rect><rect x="4" y="57" width="16" height="6" rx="2"></rect><rect x="4" y="77" width="16" height="6" rx="2"></rect>
    <rect x="100" y="37" width="16" height="6" rx="2"></rect><rect x="100" y="57" width="16" height="6" rx="2"></rect><rect x="100" y="77" width="16" height="6" rx="2"></rect>
  </g>
  <rect x="22" y="22" width="76" height="76" rx="16" fill="none" stroke="url(#g1)" stroke-width="5"></rect>
  <text x="60" y="61" text-anchor="middle" dominant-baseline="central" font-family="Chakra Petch, sans-serif" font-weight="700" font-size="46" fill="#fff">B</text>
</svg>
